<?xml version="1.0" standalone="no"?>
<!DOCTYPE svg PUBLIC "-//W3C//DTD SVG 20010904//EN"
 "http://www.w3.org/TR/2001/REC-SVG-20010904/DTD/svg10.dtd">
<svg version="1.0" xmlns="http://www.w3.org/2000/svg"
 width="512.000000pt" height="512.000000pt" viewBox="0 0 512.000000 512.000000"
 preserveAspectRatio="xMidYMid meet">

<g transform="translate(0.000000,512.000000) scale(0.100000,-0.100000)"
fill="#000000" stroke="none">
<path d="M2415 4696 c-191 -45 -347 -151 -449 -305 -83 -126 -112 -219 -123
-393 l-6 -108 -166 0 c-193 0 -260 -13 -363 -67 -118 -62 -212 -168 -259 -294
-11 -29 -133 -570 -271 -1203 -276 -1263 -274 -1254 -234 -1391 43 -145 144
-270 272 -337 137 -72 28 -68 1754 -68 1715 0 1606 -4 1740 63 91 45 187 143
234 238 44 89 70 203 63 279 -6 62 -487 2289 -517 2390 -40 137 -152 266 -285
330 -108 52 -157 60 -355 60 l-170 0 0 59 c0 346 -196 628 -505 727 -100 32
-267 41 -360 20z m285 -213 c88 -24 151 -62 221 -132 104 -105 149 -219 149
-381 l0 -80 -510 0 -510 0 0 80 c0 150 42 267 131 364 135 148 326 203 519
149z m921 -803 c110 -21 203 -90 252 -187 34 -67 527 -2331 527 -2420 0 -127
-80 -252 -198 -310 l-57 -28 -1585 0 -1585 0 -47 22 c-66 30 -143 105 -174
170 -56 113 -64 60 215 1348 159 732 261 1179 276 1212 41 90 147 172 249 193
62 12 2062 12 2127 0z"/>
</g>
</svg>
