<?xml version="1.0" standalone="no"?>
<!DOCTYPE svg PUBLIC "-//W3C//DTD SVG 20010904//EN"
 "http://www.w3.org/TR/2001/REC-SVG-20010904/DTD/svg10.dtd">
<svg version="1.0" xmlns="http://www.w3.org/2000/svg"
 width="512.000000pt" height="512.000000pt" viewBox="0 0 512.000000 512.000000"
 preserveAspectRatio="xMidYMid meet">

<g transform="translate(0.000000,512.000000) scale(0.100000,-0.100000)"
fill="#000000" stroke="none">

<path d="M1930 4709 c-258 -27 -532 -124 -748 -265 -801 -521 -1021 -1591
-490 -2382 250 -373 638 -630 1088 -723 125 -26 403 -36 537 -19 287 36 581
154 804 323 45 34 91 68 101 76 18 13 63 -29 671 -636 359 -358 662 -656 674
-662 39 -20 73 -13 109 23 36 36 43 70 23 109 -6 12 -304 315 -662 674 -607
608 -649 653 -636 671 8 10 42 56 76 101 169 223 287 517 323 804 17 135 7
411 -19 539 -28 140 -92 322 -155 446 -321 626 -1000 995 -1696 921z m292
-209 c685 -57 1226 -540 1360 -1215 29 -142 30 -392 4 -535 -54 -295 -193
-565 -404 -782 -221 -227 -500 -376 -812 -434 -129 -24 -391 -24 -515 0 -315
60 -580 199 -800 420 -167 168 -281 349 -358 572 -157 451 -82 960 200 1358
74 104 235 265 339 339 216 153 491 255 742 276 53 5 104 9 112 9 8 1 68 -3
132 -8z"/>
</g>
</svg>
